<svg width="400" height="400" viewBox="0 0 400 400" fill="none" xmlns="http://www.w3.org/2000/svg">
<path d="M200 12.5C303.553 12.5 387.5 96.4466 387.5 200C387.5 303.553 303.553 387.5 200 387.5C96.4466 387.5 12.5 303.553 12.5 200C12.5 96.4466 96.4466 12.5 200 12.5Z" stroke="#1A1D29" stroke-width="25"/>
<path d="M175 165C175 189.853 154.853 210 130 210C105.147 210 85 189.853 85 165C85 140.147 105.147 120 130 120C154.853 120 175 140.147 175 165Z" fill="#FF6A1F"/>
<path d="M303 257C303 270.807 291.807 282 278 282C264.193 282 253 270.807 253 257C253 243.193 264.193 232 278 232C291.807 232 303 243.193 303 257Z" fill="#1A1D29"/>
</svg>
